<!DOCTYPE svg PUBLIC "-//W3C//DTD SVG 1.1//EN" "http://www.w3.org/Graphics/SVG/1.1/DTD/svg11.dtd">

<!-- Uploaded to: SVG Repo, www.svgrepo.com, Transformed by: SVG Repo Mixer Tools -->
<svg fill="#ffffff" width="800px" height="800px" viewBox="0 0 512 512" id="icons" xmlns="http://www.w3.org/2000/svg" stroke="#ffffff">

<g id="SVGRepo_bgCarrier" stroke-width="0"/>

<g id="SVGRepo_tracerCarrier" stroke-linecap="round" stroke-linejoin="round"/>

<g id="SVGRepo_iconCarrier">

<path d="M432,32H80A48.05,48.05,0,0,0,32,80V432a48.05,48.05,0,0,0,48,48H432a48.05,48.05,0,0,0,48-48V80A48.05,48.05,0,0,0,432,32ZM415.29,197l-52.46,61.73a27.83,27.83,0,0,1-37.65,4.62c-13-9.29-39.27-24.89-69.18-24.89s-56.18,15.6-69.18,24.89a27.84,27.84,0,0,1-37.65-4.62L96.71,197A32.12,32.12,0,0,1,97.13,155c18.93-21.31,72.3-70.87,158.87-70.87S395.94,133.72,414.87,155h0A32.12,32.12,0,0,1,415.29,197Z"/>

</g>

</svg>